<svg width="175" height="31" viewBox="0 0 175 31" fill="none" xmlns="http://www.w3.org/2000/svg">
<path d="M0 8.84777H4.34551L8.96262 22.3954C10.3885 17.9033 13.8513 8.13474 15.1414 5.71042C17.1105 1.93134 20.5733 0.220062 24.8509 0.861793L24.3756 5.14C21.7276 4.71218 19.8943 5.56782 18.8079 7.84952C16.6352 11.9138 11.2033 29.6684 11.1354 29.811L10.8638 30.0249L7.33305 30.0962L0 8.84777Z" fill="#83898F"/>
<path d="M27.2953 12.27H24.5793V8.41962H34.2889V12.27H31.3692V25.675H27.2953V12.27ZM24.5793 26.3168H34.2889V30.1672H24.5793V26.3168Z" fill="#83898F"/>
<path d="M42.5737 8.84747H46.7834L53.3017 21.3969V8.84747H57.3757V30.0246L57.104 30.1672H53.1659L46.6477 17.5465V30.1672H42.5737V8.84747Z" fill="#83898F"/>
<path d="M165.105 25.8983V22.6183H171.216V18.3401H158.587V22.6183H160.963V30.1765H174.271V25.8983H165.105Z" fill="#121B25"/>
<path d="M165.105 12.7795H173.66V8.50134H160.963V17.5569H165.105V12.7795Z" fill="#121B25"/>
<path d="M102.774 13.1351H96.5955V8.78558H113.027V13.1351H106.848V30.1766H102.706V13.1351H102.774Z" fill="#121B25"/>
<path d="M78.2208 17.4034H62.4683V21.539H78.2208V17.4034Z" fill="#83898F"/>
<path d="M145.482 20.1953V24.0457H150.099C149.012 25.1866 147.654 25.8996 146.025 25.8996C142.698 25.8996 139.982 23.0475 139.982 19.5536C139.982 16.0597 142.698 13.2076 146.025 13.2076C148.333 13.2076 150.438 14.5624 151.457 16.7728L155.055 14.705C153.29 11.1398 149.827 8.92938 146.025 8.92938C140.389 8.92938 135.908 13.7067 135.908 19.5536C135.908 25.4005 140.457 30.2491 146.025 30.2491C149.895 30.2491 153.494 28.1813 155.123 24.117V20.2666H145.482V20.1953Z" fill="#121B25"/>
<path d="M126.131 9.07135L122.329 9.14266C122.329 9.14266 117.508 24.9007 115.132 30.3198H117.508H119.613H129.051H130.341H131.767H133.396L126.131 9.07135ZM121.039 26.4694C122.329 22.9755 123.619 19.1251 124.366 16.7721L127.693 26.4694H121.039Z" fill="#121B25"/>
</svg>
